#!OML:ASF X:\für Bonn\!DataBase\2005_08_10_Bjorn_Final\c3d\bjorn.ASF
:FULLY-SPECIFIED
:DEGREES
46
root 1.3294 18.5753 2.4384 -180.291 -9.24388 180.444
lowerback 11.8027 -1.20925 2.89544
upperback 11.7871 -3.23274 -2.60342
thorax 5.59787 -2.08431 -4.22142
lowerneck -11.9266 -0.107916 -9.30821
upperneck -4.36169 0.486256 3.7118
head 0.628113 0.192822 2.86227
rclavicle -1.78906e-014 -1.51076e-014
rhumerus -21.8661 -4.76164 -82.3243
rradius 40.9724
rwrist -6.37749
rhand -16.1127 16.5289
rfingers 7.12502
rthumb 10.0915 -13.2091
lclavicle -1.78906e-014 -1.51076e-014
lhumerus -19.2104 50.906 68.7866
lradius 6.61956
lwrist -68.1124
lhand -32.2579 -6.76901
lfingers 7.12502
lthumb -5.49772 23.1397
rfemur -24.3461 1.18804 20.6893
rtibia 45.6197
rfoot -19.2598 8.90513
rtoes -13.7299
lfemur -27.5267 12.3468 -11.063
ltibia 122.38
lfoot -2.849 -17.3299
ltoes -28.619
47
root 1.33851 18.6446 2.4082 -181.219 -8.84296 179.778
lowerback 12.192 -0.935224 2.12123
upperback 11.7532 -2.94185 -3.06721
thorax 5.37434 -1.99618 -4.28012
lowerneck -11.8298 -0.193926 -9.99362
upperneck -3.49632 0.527516 4.55603
head 0.901371 0.255189 3.29636
rclavicle -2.34566e-014 -1.74931e-014
rhumerus -21.7317 -3.67164 -82.5624
rradius 42.1571
rwrist -6.45575
rhand -15.929 16.8061
rfingers 7.12502
rthumb 10.2686 -12.9233
lclavicle -2.34566e-014 -1.74931e-014
lhumerus -24.4922 63.879 61.1266
lradius 5.60734
lwrist -81.7817
lhand -32.6758 -5.03229
lfingers 7.12502
lthumb -5.90117 24.8655
rfemur -22.3955 1.23706 20.0843
rtibia 44.345
rfoot -18.9449 8.92423
rtoes -13.9957
lfemur -29.777 13.9538 -10.9355
ltibia 125.498
lfoot -2.67994 -18.5494
ltoes -28.3756
48
root 1.34854 18.7104 2.37987 -182.263 -8.48572 179.099
lowerback 12.7076 -0.609796 1.3826
upperback 11.7636 -2.6165 -3.58271
thorax 5.13305 -1.89607 -4.41772
lowerneck -11.6926 -0.301752 -10.5122
upperneck -2.68985 0.495445 5.31566
head 1.15596 0.27349 3.67246
rclavicle -2.78299e-014 -3.10104e-014
rhumerus -21.5177 -2.68345 -82.8581
rradius 43.1202
rwrist -6.07792
rhand -15.945 17.0055
rfingers 7.12502
rthumb 10.2532 -12.7246
lclavicle -2.78299e-014 -3.10104e-014
lhumerus -39.494 76.1187 43.9479
lradius 5.39951
lwrist -95.3558
lhand -32.262 -3.42554
lfingers 7.12502
lthumb -5.50166 26.483
rfemur -20.3413 1.26877 19.4757
rtibia 43.104
rfoot -18.5987 8.94407
rtoes -13.7884
lfemur -32.1084 15.6517 -10.7401
ltibia 128.449
lfoot -2.70942 -19.7545
ltoes -27.9153
49
root 1.35881 18.7716 2.35348 -183.429 -8.1946 178.41
lowerback 13.3868 -0.234893 0.721437
upperback 11.7861 -2.25591 -4.17146
thorax 4.81857 -1.7798 -4.68091
lowerneck -11.6315 -0.443913 -10.7678
upperneck -1.65918 0.38181 6.25952
head 1.32612 0.257513 3.64578
rclavicle -1.07344e-014 -1.03368e-014
rhumerus -21.2665 -1.84771 -83.2358
rradius 43.8335
rwrist -5.10204
rhand -16.2651 17.1101
rfingers 7.12502
rthumb 9.94444 -12.6351
lclavicle -1.07344e-014 -1.03368e-014
lhumerus -105.852 81.4455 -23.7652
lradius 7.24042
lwrist -108.936
lhand -32.0466 -3.66859
lfingers 7.12502
lthumb -5.29377 26.2453
rfemur -18.1647 1.25783 18.86
rtibia 41.8947
rfoot -18.2612 8.94366
rtoes -13.4017
lfemur -34.5213 17.3675 -10.528
ltibia 131.21
lfoot -2.63283 -20.8531
ltoes -26.7751
50
root 1.36954 18.8275 2.32909 -184.701 -7.91688 177.697
lowerback 14.1949 0.194231 0.0641575
upperback 11.8533 -1.87441 -4.78629
thorax 4.49015 -1.66396 -4.98445
lowerneck -11.4263 -0.581637 -10.8887
upperneck -0.855017 0.220999 6.80911
head 1.55244 0.202462 3.82934
rclavicle 1.55052e-014 8.50798e-014
rhumerus -20.891 -1.21252 -83.6045
rradius 44.3454
rwrist -3.68213
rhand -16.6519 17.3738
rfingers 7.12502
rthumb 9.57119 -12.3888
lclavicle 1.55052e-014 8.50798e-014
lhumerus -153.464 72.8599 -72.5912
lradius 8.99867
lwrist -122.605
lhand -32.6898 -4.01001
lfingers 7.12502
lthumb -5.91477 25.8874
rfemur -15.8993 1.21975 18.2208
rtibia 40.7156
rfoot -17.8866 8.94454
rtoes -13.0634
lfemur -37.0281 19.1391 -10.354
ltibia 133.755
lfoot -2.59327 -21.9117
ltoes -25.726
51
root 1.38054 18.8779 2.30608 -186.058 -7.66538 177.029
lowerback 15.0743 0.645691 -0.577485
upperback 11.9696 -1.50808 -5.34129
thorax 4.18269 -1.56593 -5.24349
lowerneck -11.2258 -0.730288 -11.1645
upperneck -0.0973919 0.0485904 7.40005
head 1.76699 0.140464 4.05104
rclavicle 2.26615e-014 8.11041e-014
rhumerus -20.3842 -0.681667 -83.8377
rradius 44.7973
rwrist -2.41172
rhand -16.699 17.902
rfingers 7.12502
rthumb 9.52573 -11.8627
lclavicle 2.26615e-014 8.11041e-014
lhumerus -166.023 60.7126 -86.0734
lradius 10.3646
lwrist -136.398
lhand -34.3137 -3.77139
lfingers 7.12502
lthumb -7.48233 26.0763
rfemur -13.5863 1.16013 17.6373
rtibia 39.585
rfoot -17.5008 8.90285
rtoes -12.8961
lfemur -39.6855 20.9393 -10.19
ltibia 136.059
lfoot -2.71907 -22.9599
ltoes -25.651
52
root 1.39239 18.9235 2.28261 -187.487 -7.46698 176.362
lowerback 15.9786 1.11242 -1.25378
upperback 12.1671 -1.17557 -5.84542
thorax 3.95385 -1.50031 -5.43984
lowerneck -11.1016 -0.887198 -11.6118
upperneck 0.624943 -0.123407 8.05801
head 1.98412 0.0783414 4.32284
rclavicle 1.51076e-014 3.81667e-014
rhumerus -19.8175 -0.111551 -83.9259
rradius 45.2646
rwrist -1.44514
rhand -16.4856 18.6669
rfingers 7.12502
rthumb 9.73171 -11.0883
lclavicle 1.51076e-014 3.81667e-014
lhumerus -167.699 61.7469 -87.5806
lradius 11.3592
lwrist -136.372
lhand -33.8326 -2.35375
lfingers 7.12502
lthumb -7.01802 27.5099
rfemur -11.2356 1.11856 17.0573
rtibia 38.5318
rfoot -17.0873 8.79835
rtoes -12.6138
lfemur -42.5435 22.5773 -10.2374
ltibia 138.078
lfoot -2.99461 -23.8157
ltoes -26.19
53
root 1.40352 18.9603 2.2586 -189.034 -7.30068 175.753
lowerback 16.966 1.60328 -1.84855
upperback 12.4327 -0.854301 -6.32116
thorax 3.76109 -1.44868 -5.66482
lowerneck -10.9638 -1.05729 -12.1413
upperneck 1.27975 -0.320626 8.79917
head 2.18372 0.00342139 4.63413
rclavicle -8.74653e-015 -3.81667e-014
rhumerus -19.2143 0.542357 -83.9236
rradius 45.556
rwrist -0.442754
rhand -16.5527 19.7722
rfingers 7.12502
rthumb 9.66691 -9.98599
lclavicle -8.74653e-015 -3.81667e-014
lhumerus -169.662 63.3223 -89.305
lradius 12.1504
lwrist -136.068
lhand -33.2372 -0.702281
lfingers 7.12502
lthumb -6.44317 29.1797
rfemur -8.81998 1.07307 16.5412
rtibia 37.5875
rfoot -16.6859 8.61873
rtoes -12.5386
lfemur -45.3533 24.0032 -10.4433
ltibia 139.661
lfoot -3.14299 -24.3305
ltoes -25.6771
